<svg width="123" height="102" viewBox="0 0 123 102" fill="none" xmlns="http://www.w3.org/2000/svg">
<g clip-path="url(#clip0_270_4)">
<path fill-rule="evenodd" clip-rule="evenodd" d="M119.9 27.76V84.88C119.9 85.7605 119.55 86.605 118.928 87.2276C118.305 87.8502 117.461 88.2 116.58 88.2H76.5801C76.7601 93.27 78.9401 97.81 84.5801 101.39H38.3101C42.9001 98.07 46.2401 94.06 46.3101 88.2H6.30014C5.4239 88.1921 4.58609 87.8392 3.96835 87.2177C3.35061 86.5962 3.00273 85.7563 3.00014 84.88V27.77C1.04561 25.1316 -0.00640209 21.9335 0.000135781 18.65V12.91C-0.00338973 12.6254 0.0617864 12.3441 0.190136 12.09L10.8201 0.85C10.9444 0.599343 11.1351 0.387564 11.3713 0.237699C11.6076 0.0878345 11.8804 0.00562066 12.1601 0L109.86 0C110.158 0.0042339 110.449 0.0954526 110.695 0.262448C110.942 0.429443 111.135 0.664939 111.25 0.94L122.65 12C122.785 12.2349 122.861 12.4992 122.87 12.77C122.875 12.8265 122.875 12.8835 122.87 12.94V18.62C122.875 21.9001 121.823 25.0944 119.87 27.73L119.9 27.76ZM7.33014 31.53V60.84H42.4301C42.7972 61.7623 43.2283 62.6578 43.7201 63.52H7.33014V72.58C7.34803 73.3532 7.66383 74.0896 8.21163 74.6355C8.75943 75.1814 9.4969 75.4947 10.2701 75.51H112.62C113.393 75.4947 114.131 75.1814 114.679 74.6355C115.226 74.0896 115.542 73.3532 115.56 72.58V63.52H79.1601C79.652 62.6578 80.083 61.7623 80.4501 60.84H115.56V31.62L115.43 31.68C113.722 32.5494 111.845 33.0374 109.93 33.11C107.771 33.143 105.628 32.724 103.64 31.88C102.202 31.152 100.902 30.1773 99.8001 29C98.8222 27.9334 98.0037 26.731 97.3701 25.43C96.7401 26.733 95.9212 27.9359 94.9401 29C93.7403 30.3468 92.2691 31.4247 90.6232 32.1627C88.9773 32.9007 87.1939 33.2823 85.3901 33.2823C83.5863 33.2823 81.803 32.9007 80.1571 32.1627C78.5112 31.4247 77.04 30.3468 75.8401 29C74.859 27.9359 74.0402 26.733 73.4101 25.43C72.7858 26.7315 71.9738 27.9343 71.0001 29C69.8003 30.3468 68.3291 31.4247 66.6832 32.1627C65.0373 32.9007 63.2539 33.2823 61.4501 33.2823C59.6463 33.2823 57.863 32.9007 56.2171 32.1627C54.5712 31.4247 53.1 30.3468 51.9001 29C50.9255 27.9308 50.1074 26.7288 49.4701 25.43C48.8314 26.7377 47.9987 27.9413 47.0001 29C45.8003 30.3468 44.3291 31.4247 42.6832 32.1627C41.0373 32.9007 39.2539 33.2823 37.4501 33.2823C35.6463 33.2823 33.863 32.9007 32.2171 32.1627C30.5712 31.4247 29.1 30.3468 27.9001 29C26.9222 27.9334 26.1037 26.731 25.4701 25.43C24.8397 26.7304 24.0246 27.9328 23.0501 29C21.4527 30.7416 19.4247 32.0316 17.1701 32.74C14.7014 33.3256 12.1222 33.2532 9.69014 32.53C8.87536 32.2673 8.08558 31.9327 7.33014 31.53ZM5.44014 11.32H24.2801L27.9801 3.32H13.0601L5.44014 11.32ZM73.2601 3.32L74.8001 11.32H95.3701L91.1601 3.32H73.2601ZM71.7101 11.32L70.1801 3.32H52.6501L51.1401 11.32H71.7101ZM48.0601 11.32L49.5701 3.32H31.1401L27.4401 11.32H48.0601ZM94.3401 3.32L98.5501 11.32H117.33L108.99 3.32H94.3401ZM98.9201 14.63V18.63C98.8913 21.5878 99.9848 24.4465 101.98 26.63C102.903 27.6737 104.038 28.5094 105.308 29.0818C106.579 29.6542 107.957 29.9501 109.35 29.9501C110.744 29.9501 112.121 29.6542 113.392 29.0818C114.662 28.5094 115.797 27.6737 116.72 26.63C118.718 24.4475 119.815 21.5889 119.79 18.63V14.63H98.9201ZM74.9201 14.63V18.63C74.89 21.5898 75.9877 24.4502 77.9901 26.63C78.9135 27.6737 80.0479 28.5094 81.3185 29.0818C82.589 29.6542 83.9666 29.9501 85.3601 29.9501C86.7536 29.9501 88.1313 29.6542 89.4018 29.0818C90.6723 28.5094 91.8068 27.6737 92.7301 26.63C94.7283 24.4475 95.8253 21.5889 95.8001 18.63V14.63H74.9201ZM50.9201 14.63V18.63C50.8913 21.5878 51.9848 24.4465 53.9801 26.63C54.9035 27.6737 56.0379 28.5094 57.3085 29.0818C58.579 29.6542 59.9566 29.9501 61.3501 29.9501C62.7436 29.9501 64.1213 29.6542 65.3918 29.0818C66.6623 28.5094 67.7968 27.6737 68.7201 26.63C70.7183 24.4475 71.8153 21.5889 71.7901 18.63V14.63H50.9201ZM26.9201 14.63V18.63C26.89 21.5898 27.9877 24.4502 29.9901 26.63C30.9135 27.6737 32.0479 28.5094 33.3185 29.0818C34.589 29.6542 35.9666 29.9501 37.3601 29.9501C38.7536 29.9501 40.1313 29.6542 41.4018 29.0818C42.6723 28.5094 43.8068 27.6737 44.7301 26.63C46.7283 24.4475 47.8253 21.5889 47.8001 18.63V14.63H26.9201ZM23.8401 14.63H3.08014V18.63C3.05 21.5898 4.14765 24.4502 6.15014 26.63C7.07989 27.6658 8.21565 28.4962 9.48473 29.0679C10.7538 29.6395 12.1283 29.94 13.5201 29.95C14.9103 29.9386 16.2828 29.6375 17.5501 29.0658C18.8174 28.4942 19.9515 27.6646 20.8801 26.63C22.8811 24.4485 23.9815 21.5901 23.9601 18.63V14.63H23.8401ZM61.4401 37.53C63.5196 37.525 65.5795 37.9329 67.5001 38.73C69.4132 39.5248 71.1499 40.6905 72.6101 42.16C74.8268 44.3717 76.3378 47.1911 76.9519 50.2616C77.566 53.3322 77.2557 56.5159 76.0601 59.41C75.2653 61.3206 74.1034 63.0567 72.6401 64.52C70.4332 66.7472 67.6134 68.2674 64.5398 68.8871C61.4662 69.5068 58.2777 69.198 55.3801 68C51.5008 66.3916 48.4183 63.3093 46.8096 59.4301C45.2009 55.5509 45.1975 51.1918 46.8001 47.31C48.002 44.4208 50.0332 41.9526 52.6371 40.2173C55.2411 38.4819 58.3009 37.5572 61.4301 37.56L61.4401 37.53ZM50.0001 61.88H50.0601C51.5801 61.04 55.5401 60.76 57.1901 59.61C57.3356 59.3785 57.4594 59.1342 57.5601 58.88C57.7501 58.45 57.9201 57.98 58.0301 57.66C57.582 57.101 57.1711 56.513 56.8001 55.9L55.5601 53.9C55.1596 53.3745 54.9138 52.7476 54.8501 52.09C54.8365 51.8668 54.8777 51.6436 54.9701 51.44C55.0649 51.237 55.2136 51.064 55.4001 50.94C55.4938 50.8782 55.5945 50.8278 55.7001 50.79C55.6147 49.6053 55.5946 48.4169 55.6401 47.23C55.6693 46.9558 55.7228 46.6847 55.8001 46.42C56.1441 45.2974 56.8924 44.3424 57.9001 43.74C58.4456 43.3955 59.0385 43.1327 59.6601 42.96C60.0601 42.85 59.4301 41.87 59.8401 41.82C61.8401 41.62 64.9101 43.14 66.2901 44.64C67.0429 45.4815 67.4748 46.5615 67.5101 47.69L67.4401 50.92C67.6007 50.9624 67.7463 51.0483 67.8611 51.1683C67.9758 51.2883 68.055 51.4377 68.0901 51.6C68.1631 52.1885 68.0438 52.7848 67.7501 53.3L66.3301 55.64C65.8509 56.5084 65.2665 57.3145 64.5901 58.04L64.7801 58.31C65.0515 58.7327 65.3593 59.1309 65.7001 59.5C67.3401 60.66 71.3201 60.94 72.8401 61.79H72.9101C74.4893 59.6658 75.447 57.1446 75.6764 54.5077C75.9058 51.8708 75.3978 49.222 74.2091 46.8571C73.0204 44.4922 71.1978 42.5042 68.9448 41.115C66.6918 39.7259 64.097 38.9902 61.4501 38.9902C58.8033 38.9902 56.2085 39.7259 53.9555 41.115C51.7025 42.5042 49.8799 44.4922 48.6912 46.8571C47.5025 49.222 46.9945 51.8708 47.2239 54.5077C47.4532 57.1446 48.411 59.6658 49.9901 61.79L50.0001 61.88Z" fill="#BFF747"/>
</g>
<defs>
<clipPath id="clip0_270_4">
<rect width="122.88" height="101.39" fill="white"/>
</clipPath>
</defs>
</svg>
