<svg width="50px" height="50px" viewBox="0 0 50 50" fill="none" xmlns="http://www.w3.org/2000/svg" transform="rotate(0) scale(1, 1)">
<g clip-path="url(#clip0_268_2)">
<path fill-rule="evenodd" clip-rule="evenodd" d="M1.26139 25.9467H8.66699C9.0012 25.9479 9.32142 26.0983 9.55775 26.3652C9.79407 26.632 9.92731 26.9936 9.92839 27.371V44.4635C9.92731 44.8409 9.79407 45.2025 9.55775 45.4693C9.32142 45.7362 9.0012 45.8866 8.66699 45.8878H1.26139C0.927181 45.8866 0.606964 45.7362 0.370639 45.4693C0.134314 45.2025 0.00107292 44.8409 0 44.4635L0 27.371C0.00107292 26.9936 0.134314 26.632 0.370639 26.3652C0.606964 26.0983 0.927181 25.9479 1.26139 25.9467ZM11.5641 44.2154V27.5686H19.4377C22.2534 28.1383 25.0692 29.866 27.8809 31.8647H33.0404C35.3719 32.0209 36.5967 34.695 34.3302 36.4594C32.5195 37.9573 30.1351 37.87 27.6896 37.6265C26.001 37.53 25.9277 40.0893 27.6896 40.0985C28.3 40.1536 28.9632 39.9928 29.5451 39.9882C32.5968 39.9882 35.1115 39.3265 36.6496 36.6065L37.4349 34.5342L45.105 30.2381C48.9461 28.8138 51.6724 33.3488 48.8444 36.5008C43.4931 40.9122 37.7687 44.7152 31.7546 47.8544C27.5228 50.7629 23.2869 50.6618 19.0552 47.8544L11.5682 44.2154H11.5641ZM25.2279 3.51511C25.181 3.47164 25.1271 3.43887 25.0692 3.41862C25.0263 3.40759 24.9818 3.40759 24.939 3.41862C24.8238 3.43169 24.7175 3.49419 24.6419 3.59322L23.6125 4.97165C23.5207 5.09627 23.3936 5.18127 23.2527 5.21225C23.1119 5.24323 22.9658 5.21829 22.8394 5.14165C22.701 5.05895 22.5545 4.98084 22.408 4.91191C22.2616 4.84299 22.0866 4.76948 21.932 4.70975C21.7773 4.65001 21.6187 4.59947 21.4355 4.53974C21.2524 4.48001 21.0978 4.43406 20.9391 4.39271C20.8076 4.35499 20.6905 4.2701 20.6054 4.15078C20.5203 4.03147 20.4718 3.88419 20.4671 3.73106L20.3125 1.83803C20.3061 1.77104 20.2895 1.70578 20.2637 1.64505C20.2387 1.59552 20.2071 1.55059 20.1701 1.5118C20.1333 1.47366 20.0885 1.44677 20.0399 1.43369C19.985 1.41952 19.9279 1.41952 19.873 1.43369L17.7124 1.67262C17.6546 1.68139 17.5984 1.69998 17.5456 1.72776C17.4927 1.76036 17.4457 1.80402 17.4072 1.85641C17.3752 1.90173 17.3504 1.95305 17.334 2.00804C17.3256 2.05814 17.3256 2.10956 17.334 2.15966L17.4845 3.94702C17.4985 4.11241 17.4605 4.27808 17.3772 4.41501C17.2939 4.55194 17.1705 4.6514 17.0288 4.69596C16.8986 4.7465 16.7521 4.80624 16.5853 4.88435C16.4185 4.96246 16.276 5.04057 16.1458 5.11868H16.1214C15.9831 5.20138 15.8366 5.28868 15.7145 5.38058H15.6738C15.5355 5.47247 15.4012 5.56896 15.2669 5.66545C15.1559 5.74839 15.0244 5.7895 14.8914 5.78289C14.7583 5.77629 14.6306 5.72231 14.5264 5.62869L13.1185 4.3973C13.0756 4.35837 13.0275 4.32735 12.9761 4.30541C12.9359 4.2953 12.8942 4.2953 12.854 4.30541C12.7959 4.3148 12.7395 4.33499 12.6872 4.36514H12.6628C12.625 4.39535 12.5908 4.43086 12.561 4.47082L11.1979 6.34088C11.1568 6.39673 11.1251 6.46057 11.1043 6.52926C11.0963 6.57785 11.0963 6.62771 11.1043 6.6763V6.70846C11.1086 6.76306 11.1224 6.81617 11.145 6.86468V6.88765C11.172 6.93288 11.2049 6.97317 11.2427 7.00712L12.4634 8.16959C12.5754 8.27291 12.6518 8.41729 12.6793 8.57762C12.7068 8.73796 12.6837 8.90411 12.6139 9.04718C12.5409 9.19658 12.4743 9.34992 12.4146 9.50666C12.3469 9.68233 12.2871 9.86176 12.2355 10.0442C12.1867 10.2142 12.1338 10.398 12.0809 10.6048C12.028 10.8116 11.9873 10.9908 11.9507 11.1654C11.9255 11.316 11.8574 11.4531 11.7567 11.556C11.6561 11.6589 11.5284 11.7217 11.3932 11.7351L9.71273 11.9097C9.6547 11.917 9.59823 11.9356 9.5459 11.9648C9.49993 11.9935 9.45865 12.0308 9.42383 12.0751C9.39218 12.1183 9.36865 12.1684 9.35465 12.2222C9.34369 12.2828 9.34369 12.3453 9.35465 12.4059L9.56624 14.8458C9.57211 14.9129 9.58865 14.9782 9.61507 15.0387C9.64223 15.0985 9.67956 15.1516 9.72493 15.195C9.76606 15.2295 9.81126 15.2573 9.85921 15.2777C9.90903 15.2873 9.95995 15.2873 10.0098 15.2777L11.5926 15.1077C11.7352 15.0976 11.8765 15.1433 11.9929 15.237C12.1092 15.3307 12.1934 15.4667 12.2314 15.6223C12.2762 15.7693 12.3332 15.9393 12.4023 16.1231C12.4715 16.3069 12.5366 16.4677 12.6099 16.6239L12.6383 16.6882C12.7034 16.8307 12.7767 16.9869 12.8581 17.1477L13.1307 17.6531C13.2011 17.7786 13.2351 17.9257 13.2278 18.074C13.2205 18.2223 13.1723 18.3643 13.09 18.4802L11.9629 20.047C11.9332 20.0924 11.9086 20.1418 11.8896 20.194C11.8833 20.2382 11.8833 20.2832 11.8896 20.3273C11.895 20.3945 11.9115 20.46 11.9385 20.5203C11.9648 20.5754 12.0008 20.6239 12.0443 20.6627C12.6058 21.1911 13.1836 21.7103 13.741 22.2433C13.7782 22.2735 13.8194 22.2968 13.8631 22.3122C13.9141 22.3241 13.9667 22.3241 14.0177 22.3122C14.0797 22.3048 14.1401 22.2862 14.1968 22.2571H14.2171C14.2557 22.2278 14.2924 22.1956 14.327 22.1606L15.3442 20.7822C15.4357 20.6557 15.5632 20.5691 15.7051 20.5372C15.8469 20.5053 15.9941 20.5302 16.1214 20.6076C16.2616 20.6924 16.4056 20.7691 16.5527 20.8373C16.7114 20.9154 16.8701 20.9797 17.0288 21.0395C17.1875 21.0992 17.3381 21.1543 17.5252 21.2141C17.7124 21.2738 17.863 21.3197 18.0216 21.3611C18.1557 21.3955 18.276 21.4791 18.3636 21.5988C18.4512 21.7185 18.5012 21.8676 18.5059 22.0227L18.6605 23.8928C18.667 23.9589 18.6849 24.0229 18.7134 24.0812C18.7359 24.1339 18.7677 24.1808 18.807 24.219C18.8463 24.2529 18.8903 24.2793 18.9372 24.2971C18.9923 24.3091 19.0489 24.3091 19.104 24.2971L21.2606 24.0582C21.3213 24.0515 21.3805 24.0329 21.4355 24.0031C21.4839 23.9745 21.5279 23.9373 21.5658 23.8928C21.6024 23.8419 21.6313 23.7844 21.6512 23.7228C21.6636 23.6685 21.6636 23.6116 21.6512 23.5574L21.5047 21.7654C21.49 21.6092 21.5221 21.4519 21.5959 21.3186C21.6696 21.1853 21.7808 21.0838 21.9116 21.0303C22.0703 20.9705 22.229 20.9016 22.3836 20.8281H22.4325C22.5627 20.7638 22.6929 20.6903 22.8394 20.6076H22.8638C23.0184 20.5203 23.1689 20.4284 23.3032 20.3365L23.7549 20.0286C23.8653 19.9487 23.9954 19.9106 24.1264 19.9197C24.2573 19.9288 24.3823 19.9846 24.4832 20.0792L25.8586 21.3473C25.8997 21.3818 25.9449 21.4097 25.9928 21.43C26.0356 21.4415 26.0802 21.4415 26.123 21.43C26.1812 21.4268 26.2381 21.4096 26.2899 21.3795C26.3364 21.3461 26.3776 21.3041 26.4119 21.2554C26.8799 20.6213 27.3397 19.9689 27.8117 19.3394C27.8391 19.2996 27.8598 19.2544 27.8727 19.2062C27.8813 19.1484 27.8813 19.0894 27.8727 19.0316C27.8657 18.9618 27.8492 18.8936 27.8239 18.8294C27.7976 18.7743 27.7632 18.7246 27.7222 18.6824L26.5015 17.5612C26.3871 17.4589 26.3085 17.3143 26.2795 17.1529C26.2504 16.9914 26.2728 16.8236 26.3428 16.6791C26.4179 16.5207 26.4858 16.3582 26.5462 16.192C26.6154 16.0036 26.6764 15.8244 26.7253 15.659C26.7741 15.4936 26.8229 15.3006 26.8758 15.0939C26.9287 14.8871 26.9694 14.7171 27.006 14.5333C27.037 14.3797 27.1128 14.2422 27.2213 14.1431C27.3298 14.0439 27.4646 13.9888 27.6042 13.9865L29.2969 13.7844C29.3562 13.7771 29.414 13.7584 29.4678 13.7292C29.5107 13.6995 29.5503 13.664 29.5858 13.6235C29.6158 13.5791 29.6392 13.5295 29.6549 13.4765C29.6637 13.4187 29.6637 13.3597 29.6549 13.3019L29.4434 10.8667C29.4363 10.8013 29.4198 10.7377 29.3945 10.6783V10.6507C29.3665 10.6024 29.3322 10.559 29.2928 10.5221C29.2527 10.4859 29.2072 10.4579 29.1585 10.4394C29.1142 10.4299 29.0686 10.4299 29.0243 10.4394L27.4251 10.568C27.287 10.583 27.1483 10.5461 27.0306 10.4631C26.9129 10.38 26.8227 10.2554 26.7741 10.1086C26.7212 9.93856 26.6642 9.75937 26.591 9.57558C26.5177 9.39179 26.4486 9.19881 26.3794 9.04718V9.01502C26.3104 8.85759 26.2343 8.70424 26.1515 8.55555C26.0701 8.39933 25.9766 8.2431 25.883 8.09607C25.8066 7.96908 25.7689 7.81748 25.7755 7.66415C25.7821 7.51082 25.8327 7.36407 25.9196 7.24604L27.0345 5.68843C27.0698 5.64065 27.0974 5.58621 27.1159 5.52761C27.1245 5.48373 27.1245 5.43825 27.1159 5.39436C27.1075 5.32726 27.0896 5.2621 27.063 5.20138V5.16922C27.0391 5.12823 27.0103 5.09113 26.9775 5.05895L25.4517 3.64376C25.3698 3.61938 25.2935 3.57551 25.2279 3.51511ZM42.0654 14.8182C42.0013 14.7565 41.9268 14.7101 41.8464 14.6816C41.766 14.6532 41.6813 14.6434 41.5975 14.6528C41.4293 14.6743 41.2748 14.7681 41.1662 14.9147L40.5436 15.7647C40.3458 15.6491 40.1404 15.5507 39.9292 15.4706C39.7095 15.3925 39.5223 15.3236 39.2863 15.2639L39.1886 14.0784C39.1738 13.8891 39.0933 13.7141 38.9648 13.5914C38.9014 13.5306 38.8272 13.4857 38.7473 13.4595C38.6673 13.4334 38.5834 13.4267 38.501 13.4398L37.1745 13.5868C37.0166 13.6109 36.872 13.6991 36.7676 13.8349C36.7123 13.9069 36.6708 13.991 36.6456 14.0819C36.6204 14.1728 36.6121 14.2686 36.6211 14.3633L36.7106 15.4523C36.4957 15.5308 36.2873 15.6307 36.0881 15.7509C35.8905 15.8611 35.7001 15.987 35.5184 16.1277L34.6802 15.365C34.6194 15.3014 34.5473 15.2533 34.4687 15.224C34.3901 15.1947 34.3068 15.1848 34.2244 15.195C34.0554 15.2167 33.9005 15.3124 33.7931 15.4614L32.9793 16.6055C32.9249 16.678 32.8838 16.7621 32.8586 16.8528C32.8334 16.9435 32.8245 17.039 32.8324 17.1336C32.8404 17.2282 32.8651 17.3201 32.905 17.4038C32.9449 17.4875 32.9992 17.5614 33.0648 17.621L33.7728 18.324C33.67 18.5466 33.5842 18.7787 33.5164 19.0178C33.4432 19.2659 33.3822 19.4773 33.3293 19.7437L32.2795 19.854C32.1122 19.8722 31.9576 19.9628 31.8481 20.1067C31.7982 20.1813 31.7627 20.2668 31.7438 20.3578C31.7249 20.4488 31.723 20.5433 31.7383 20.6351L31.8685 22.1284C31.8848 22.3159 31.9651 22.4889 32.0923 22.6109C32.155 22.6736 32.2287 22.7207 32.3087 22.7492C32.3886 22.7777 32.4729 22.7869 32.5562 22.7763L33.5205 22.6752C33.5871 22.9156 33.6715 23.1492 33.7728 23.3736C33.8736 23.6006 33.985 23.8215 34.1064 24.0352L33.431 24.9542C33.3752 25.023 33.3332 25.1046 33.3079 25.1934C33.2827 25.2822 33.2747 25.3762 33.2845 25.4688C33.3079 25.6494 33.3907 25.8135 33.5164 25.9283L34.5459 26.9253C34.6105 26.9855 34.6854 27.03 34.7659 27.0561C34.8464 27.0822 34.9308 27.0893 35.0138 27.077C35.1825 27.0586 35.3391 26.9702 35.4533 26.8288L36.0799 25.965C36.2766 26.0834 36.4822 26.1818 36.6943 26.2591C36.9051 26.3413 37.1197 26.4103 37.3372 26.4659L37.4349 27.6559C37.4524 27.843 37.5325 28.0155 37.6587 28.1383C37.7229 28.1996 37.7976 28.2451 37.8781 28.272C37.9587 28.2989 38.0433 28.3066 38.1266 28.2946L39.4491 28.1475C39.6146 28.1273 39.7673 28.037 39.8763 27.8948C39.9315 27.8228 39.973 27.7387 39.9982 27.6478C40.0234 27.5569 40.0318 27.4611 40.0228 27.3664L39.9292 26.2775C40.1447 26.2006 40.3532 26.1006 40.5518 25.9788C40.7518 25.8673 40.946 25.743 41.1336 25.6066L41.9474 26.3694C42.0112 26.4317 42.0856 26.4786 42.1662 26.5071C42.2467 26.5355 42.3315 26.545 42.4154 26.5348C42.4991 26.5261 42.5805 26.4984 42.6546 26.4534C42.7287 26.4084 42.794 26.347 42.8467 26.2729L43.693 25.115C43.7464 25.042 43.7862 24.9575 43.81 24.8667C43.8337 24.7759 43.841 24.6807 43.8314 24.5866C43.8156 24.395 43.7356 24.2174 43.6076 24.0904L42.8426 23.392C42.9579 23.1714 43.0547 22.9391 43.1315 22.6982C43.2038 22.4615 43.2649 22.2207 43.3146 21.9768L44.3685 21.8665C44.5274 21.8429 44.6726 21.7527 44.7754 21.6138C44.8298 21.5415 44.8703 21.4571 44.8941 21.3661C44.9179 21.2751 44.9246 21.1795 44.9137 21.0854L44.7835 19.5921C44.7608 19.4134 44.6812 19.2501 44.5597 19.1326C44.4963 19.0695 44.422 19.0218 44.3415 18.9925C44.261 18.9632 44.176 18.9531 44.0918 18.9626L43.1274 19.0683C43.0549 18.8269 42.9665 18.5919 42.863 18.3653C42.7697 18.1397 42.658 17.9243 42.5293 17.7221L43.2088 16.7755C43.2635 16.7059 43.3048 16.6242 43.33 16.5356C43.3552 16.447 43.3638 16.3535 43.3553 16.2609C43.3363 16.071 43.2532 15.8966 43.1234 15.7739L42.1061 14.832H42.0736L42.0654 14.8182ZM38.0452 17.9564C38.3904 17.9211 38.7384 17.96 39.0706 18.0713C39.3892 18.1857 39.6859 18.3665 39.9455 18.6043C40.2035 18.8449 40.4176 19.1399 40.5762 19.4727C40.742 19.8142 40.8419 20.1917 40.8691 20.58C40.9006 20.9697 40.8661 21.3627 40.7674 21.7379C40.6735 22.0988 40.5173 22.4353 40.3078 22.7279C40.0983 23.0204 39.8397 23.2633 39.5467 23.4425C39.2431 23.6261 38.9093 23.7371 38.5661 23.7687C38.2209 23.8066 37.8725 23.7676 37.5407 23.6539C37.2212 23.541 36.9231 23.3618 36.6618 23.1255C36.4061 22.8816 36.1935 22.5854 36.0352 22.2525C35.8602 21.9104 35.7532 21.5294 35.7218 21.136C35.6671 20.5626 35.7658 19.9839 36.0052 19.4745C36.2445 18.9651 36.6135 18.5483 37.0646 18.278C37.3667 18.0897 37.7012 17.9769 38.0452 17.9472V17.9564ZM25.4557 2.06777C25.5981 2.11828 25.7347 2.18769 25.8626 2.27453C25.9523 2.29877 26.0358 2.34593 26.1068 2.41237L27.7466 3.95161C27.8987 4.09239 28.0281 4.26183 28.1291 4.45244L28.1616 4.51217C28.2653 4.72889 28.3316 4.9659 28.3569 5.21057C28.3853 5.46745 28.3617 5.72825 28.2878 5.9733C28.2232 6.18858 28.1254 6.38925 27.9989 6.56602L27.1606 7.74228L27.2135 7.83877C27.3203 8.0407 27.4167 8.24934 27.5024 8.46365C27.6001 8.67807 27.6815 8.87565 27.7466 9.05637L27.7791 9.14827L28.8778 9.0288C29.091 9.00091 29.3071 9.0228 29.5125 9.09313H29.5451C29.7337 9.16373 29.91 9.27102 30.0659 9.41017L30.1229 9.46531C30.2682 9.60932 30.3906 9.78024 30.485 9.97073L30.5176 10.0305C30.6111 10.2388 30.6704 10.4645 30.6925 10.6967C30.6925 11.3124 30.8309 12.507 30.9041 13.1503C30.9285 13.3827 30.9133 13.6182 30.8594 13.8441V13.8854C30.7972 14.1224 30.6935 14.3427 30.5542 14.5333C30.4205 14.7203 30.2561 14.8763 30.07 14.9928C29.8768 15.1048 29.6673 15.1764 29.4515 15.2041L28.1576 15.3328L28.125 15.466C28.0802 15.6498 28.0233 15.8566 27.95 16.0909C27.8768 16.3253 27.8158 16.5504 27.7466 16.7204L27.714 16.7985L28.6051 17.6118C28.7743 17.7769 28.9126 17.9784 29.012 18.2045C29.0863 18.4062 29.1303 18.6205 29.1423 18.8386V18.8616C29.1696 19.1081 29.1516 19.3584 29.0894 19.5967C29.0329 19.8206 28.9404 20.0308 28.8167 20.217L27.3966 22.156C27.261 22.3444 27.0937 22.5005 26.9043 22.6155C26.7125 22.7366 26.5005 22.8117 26.2817 22.836C26.0647 22.8645 25.8448 22.8442 25.6348 22.7763H25.6022C25.417 22.7053 25.2437 22.5997 25.0895 22.4638L24.0356 21.4943L23.9299 21.5633C23.7508 21.6827 23.5758 21.7884 23.409 21.8803C23.2422 21.9722 23.0998 22.0549 22.9329 22.1376L22.7865 22.1927L22.9004 23.4333C22.9256 23.6887 22.902 23.9472 22.8312 24.1915C22.7626 24.4178 22.6578 24.6281 22.522 24.8117L22.4976 24.8393C22.3659 25.0065 22.2105 25.1478 22.0378 25.2574H21.9971C21.8136 25.3618 21.6152 25.4287 21.4111 25.455C20.8659 25.455 19.8079 25.6158 19.2383 25.6985C19.0199 25.7257 18.7989 25.7055 18.5872 25.6388C18.3771 25.5673 18.1819 25.4485 18.0135 25.2896H17.9932C17.8367 25.1329 17.7058 24.9462 17.6066 24.7382C17.505 24.5212 17.4414 24.2841 17.4194 24.0398L17.3014 22.5833L17.1875 22.5465L16.6341 22.349C16.4388 22.2755 16.2272 22.1973 16.0767 22.1146L15.9993 22.0779L15.2669 23.0841C15.1327 23.2558 14.9712 23.3976 14.7909 23.5022L14.7461 23.5344C14.5673 23.629 14.3764 23.691 14.1805 23.7182H14.1602C13.9405 23.7488 13.7175 23.7285 13.505 23.6585C13.3096 23.5917 13.1263 23.4859 12.9639 23.346L11.2427 21.7425C11.0767 21.5883 10.9386 21.3996 10.8358 21.1865C10.732 20.9714 10.6657 20.7359 10.6405 20.4927C10.6141 20.2449 10.6378 19.9936 10.7096 19.7575C10.7698 19.5457 10.8636 19.348 10.9863 19.174L11.8449 17.984L11.8001 17.8691C11.7106 17.6991 11.6252 17.5153 11.5397 17.3223C11.438 17.111 11.3525 16.9088 11.2752 16.702L11.2386 16.5963L10.1481 16.7112C9.92358 16.7411 9.69598 16.716 9.48079 16.6377C9.29119 16.5674 9.11464 16.4584 8.95996 16.3161L8.89893 16.2655C8.73306 16.1041 8.59511 15.9093 8.49202 15.6912C8.39903 15.4843 8.33977 15.2602 8.31706 15.0295C8.31706 14.4092 8.17464 13.233 8.1014 12.5805C8.06791 12.3276 8.08037 12.0697 8.13802 11.8224C8.20136 11.5851 8.30656 11.3648 8.44727 11.1746C8.58458 10.9899 8.74992 10.8343 8.93555 10.7151C9.12803 10.6019 9.33802 10.5317 9.55404 10.5083L10.8439 10.3751L10.8765 10.2418C10.9253 10.0626 10.9823 9.85126 11.0514 9.62153C11.1206 9.39179 11.1898 9.16205 11.259 8.98745L11.2915 8.90015L10.4574 8.10067C10.2959 7.95934 10.1581 7.78663 10.0505 7.59065L10.026 7.5447C9.93288 7.34145 9.87488 7.12002 9.85514 6.89225V6.85549C9.83199 6.60647 9.85415 6.35474 9.92025 6.11574C9.98783 5.87858 10.0956 5.65854 10.2376 5.46788L11.6007 3.58863C11.7253 3.41619 11.877 3.27131 12.0483 3.16132L12.0972 3.12456C12.2881 3.00493 12.4985 2.92993 12.7157 2.90401C12.9391 2.87196 13.1661 2.89869 13.3789 2.98212C13.5692 3.05581 13.7468 3.16618 13.9038 3.30835L14.9495 4.25946L15.0553 4.16757C15.2222 4.05729 15.3931 3.95621 15.564 3.85972C15.7349 3.76323 15.922 3.65755 16.0889 3.57484L16.1865 3.53349L16.0767 2.2975C16.052 2.05669 16.0713 1.81272 16.1336 1.58072V1.54397C16.1961 1.33094 16.2912 1.13191 16.4144 0.95584L16.4754 0.919082C16.6155 0.732069 16.7852 0.576238 16.9759 0.459607C17.1596 0.350109 17.3596 0.280003 17.5659 0.252844C18.1112 0.252844 19.1691 0.0966225 19.7388 0.0139172C19.9571 -0.0160541 20.1786 0.00426553 20.3898 0.0736488C20.5996 0.1438 20.7948 0.261004 20.9635 0.418255C21.1272 0.571377 21.2651 0.756606 21.3704 0.965029C21.4744 1.18819 21.5406 1.43126 21.5658 1.68181L21.6797 3.14294L21.7977 3.1797C21.9564 3.23024 22.1436 3.29456 22.3511 3.37267L22.9085 3.60701L22.9899 3.64836L23.6938 2.68806C23.8313 2.49989 23.9999 2.34382 24.1903 2.22858C24.385 2.10572 24.5994 2.02763 24.821 1.99885C25.0412 1.96805 25.2647 1.99156 25.4761 2.06777H25.4557ZM19.0063 7.40227C19.3191 7.37243 19.6335 7.37243 19.9463 7.40227C20.2719 7.43828 20.5936 7.51062 20.9066 7.61822C21.2048 7.72392 21.4936 7.86082 21.7692 8.02715L21.8058 8.05012C22.0637 8.21131 22.3087 8.39732 22.5382 8.60609C23.0159 9.06328 23.4146 9.61629 23.7142 10.2372C23.8721 10.5557 23.9976 10.8932 24.0885 11.2435C24.1833 11.5964 24.2433 11.9601 24.2676 12.3278C24.296 12.6794 24.296 13.0331 24.2676 13.3846C24.2398 13.7526 24.1771 14.1162 24.0804 14.469V14.5149C23.9881 14.8324 23.871 15.1399 23.7305 15.4339C23.5834 15.7408 23.4132 16.0329 23.2218 16.3069L23.1812 16.3574C22.7849 16.8822 22.3062 17.3199 21.7692 17.6485C21.4846 17.8241 21.1846 17.9658 20.874 18.0713C20.5618 18.1734 20.2416 18.2411 19.9178 18.2734C19.5996 18.3033 19.2798 18.3033 18.9616 18.2734C18.6359 18.238 18.3142 18.1656 18.0013 18.0575C17.7047 17.9509 17.4173 17.814 17.1427 17.6485C16.8711 17.4803 16.6125 17.2867 16.3696 17.0696C16.1326 16.8449 15.9147 16.5957 15.7186 16.3253C15.5197 16.0493 15.3427 15.7541 15.1896 15.4431C15.0351 15.1217 14.911 14.7829 14.8193 14.4322C14.7246 14.0793 14.6645 13.7156 14.6403 13.3479C14.6119 12.9963 14.6119 12.6426 14.6403 12.2911C14.6681 11.9231 14.7308 11.5595 14.8275 11.2067C14.9203 10.8697 15.0416 10.5435 15.1896 10.2326L15.21 10.1913C15.3507 9.89731 15.5156 9.61888 15.7023 9.35963L15.7349 9.31368C15.9258 9.0567 16.1384 8.82127 16.3696 8.61068C16.6141 8.38758 16.8755 8.18924 17.1509 8.01796C17.4339 7.8421 17.7326 7.70041 18.042 7.59525C18.3557 7.49347 18.6772 7.42577 19.0023 7.39308L19.0063 7.40227ZM19.8201 8.81285C19.5792 8.78758 19.3368 8.78758 19.0959 8.81285C18.8575 8.83525 18.6216 8.8845 18.3919 8.95988C18.1674 9.03505 17.9506 9.1367 17.745 9.26314C17.5344 9.39681 17.3343 9.55053 17.1468 9.72261C16.9797 9.87588 16.8246 10.045 16.6829 10.228C16.5451 10.4224 16.4226 10.6299 16.3167 10.8483V10.8851C16.2077 11.1189 16.1178 11.3634 16.0482 11.6156C15.9636 11.8805 15.9036 12.1546 15.8691 12.4335C15.8488 12.7056 15.8488 12.9792 15.8691 13.2514C15.8887 13.5225 15.9337 13.7905 16.0034 14.0509C16.0694 14.3097 16.1608 14.5594 16.276 14.7952C16.393 15.0326 16.5292 15.2571 16.6829 15.466C16.8262 15.6676 16.9871 15.8523 17.1631 16.0174C17.3428 16.1787 17.5348 16.3217 17.7368 16.4447C17.9456 16.5682 18.1634 16.6712 18.3879 16.7526C18.6167 16.8338 18.8528 16.8862 19.0918 16.9088C19.3368 16.9341 19.5833 16.9341 19.8283 16.9088C20.068 16.886 20.3051 16.8367 20.5363 16.7618C20.7526 16.6854 20.9612 16.5838 21.1589 16.4585C21.3703 16.3265 21.5706 16.1727 21.757 15.999C21.9244 15.8428 22.0796 15.6707 22.2209 15.4844C22.3743 15.2785 22.5105 15.057 22.6278 14.8228C22.7315 14.5979 22.8199 14.3644 22.8923 14.1244V14.0968C22.9629 13.8363 23.0106 13.5685 23.0347 13.2973C23.055 13.0252 23.055 12.7516 23.0347 12.4795C23.0151 12.2083 22.9701 11.9403 22.9004 11.68C22.8341 11.4264 22.7441 11.1815 22.6318 10.9494C22.5159 10.7114 22.3796 10.4867 22.2249 10.2786C22.0817 10.0771 21.9208 9.89234 21.7448 9.72721C21.5747 9.57419 21.3937 9.43741 21.2036 9.31827H21.1711C20.9624 9.19456 20.7445 9.09155 20.52 9.01043C20.2925 8.92977 20.0578 8.87739 19.8201 8.8542V8.81285ZM6.61214 39.446C6.89881 39.4451 7.17928 39.5403 7.41803 39.7194C7.65678 39.8986 7.84308 40.1538 7.95334 40.4526C8.0636 40.7514 8.09287 41.0804 8.03744 41.398C7.98201 41.7156 7.84437 42.0075 7.64194 42.2367C7.43952 42.466 7.18142 42.6222 6.90031 42.6857C6.61921 42.7492 6.32774 42.7171 6.06281 42.5934C5.79788 42.4697 5.57141 42.2601 5.41206 41.991C5.2527 41.7219 5.16764 41.4055 5.16764 41.0817C5.16764 40.6487 5.3197 40.2334 5.59048 39.9267C5.86126 39.6201 6.22866 39.4472 6.61214 39.446Z" fill="#a5852e"/>
</g>
<defs>
<clipPath id="clip0_268_2">
<rect width="50" height="50" fill="#ffffff"/>
</clipPath>
</defs>
</svg>